<?xml version="1.0" standalone="no"?>
<!DOCTYPE svg PUBLIC "-//W3C//DTD SVG 20010904//EN"
 "http://www.w3.org/TR/2001/REC-SVG-20010904/DTD/svg10.dtd">
<svg version="1.0" xmlns="http://www.w3.org/2000/svg"
 width="249.000000pt" height="249.000000pt" viewBox="0 0 249.000000 249.000000"
 preserveAspectRatio="xMidYMid meet">
<metadata>
Created by potrace 1.14, written by Peter Selinger 2001-2017
</metadata>
<g transform="translate(0.000000,249.000000) scale(0.100000,-0.100000)"
fill="#000000" stroke="none">
<path d="M1079 2368 c-8 -15 -4 -1326 4 -1336 9 -12 148 -10 238 4 20 3 70 7
110 9 41 2 74 5 74 5 0 0 38 3 85 5 193 11 197 13 184 67 -4 18 -8 35 -9 38 0
3 -7 16 -15 30 -7 14 -12 25 -11 25 6 0 -24 67 -69 158 -51 100 -125 219 -141
225 -5 2 -9 9 -9 16 0 6 -12 25 -27 42 -16 17 -42 46 -59 65 -71 79 -181 163
-267 204 -37 17 -55 50 -44 79 5 11 20 13 69 9 35 -2 82 -4 106 -4 44 1 54 1
112 1 19 0 47 2 62 5 l27 6 3 146 c3 133 1 146 -16 155 -10 5 -26 8 -36 5 -10
-2 -24 -1 -31 3 -7 5 -23 4 -36 -1 -14 -5 -23 -5 -23 1 0 6 -9 6 -23 1 -13 -5
-30 -5 -37 -1 -8 5 -22 4 -31 -1 -10 -5 -20 -6 -23 -1 -2 4 -27 6 -55 5 -41
-3 -54 1 -68 17 -15 17 -40 27 -44 18z m344 -930 c56 -75 101 -163 94 -183 -6
-13 -47 -10 -47 5 0 4 -29 51 -65 105 -36 55 -65 107 -65 117 0 37 37 18 83
-44z"/>
<path d="M927 1687 c-8 -6 -28 -41 -42 -77 -85 -205 -181 -368 -292 -497 -81
-93 -80 -93 157 -90 109 1 202 6 207 10 4 5 8 152 9 328 1 331 -2 355 -39 326z"/>
<path d="M494 891 c-9 -10 -1 -22 57 -93 52 -62 67 -73 94 -74 51 -2 78 -12
110 -41 59 -55 138 -88 187 -79 43 7 98 29 98 38 0 4 7 8 15 8 8 0 15 4 15 8
0 16 59 42 98 44 42 1 63 -9 122 -62 19 -18 50 -38 69 -46 36 -15 113 -19 125
-6 4 4 11 7 14 7 13 1 57 28 80 49 13 11 41 28 61 36 36 14 78 44 140 98 14
13 45 40 69 59 29 25 40 39 33 46 -10 10 -1377 18 -1387 8z m1152 -94 c3 -10
3 -21 0 -24 -2 -3 -95 -6 -206 -6 -163 -1 -203 1 -210 13 -20 32 19 39 217 37
180 -1 193 -2 199 -20z"/>
<path d="M223 678 c1 -13 15 -35 31 -50 84 -78 191 -82 303 -13 36 22 45 37
37 60 -5 12 -12 10 -42 -8 -75 -46 -157 -73 -168 -56 -3 5 -16 9 -30 9 -15 0
-39 15 -64 40 -45 45 -70 52 -67 18z"/>
<path d="M2037 658 c-42 -40 -59 -52 -74 -55 -6 -1 -21 -4 -34 -6 -31 -6 -101
18 -150 50 -28 18 -42 22 -55 15 -16 -9 -15 -12 8 -35 61 -61 167 -90 241 -66
46 15 54 20 98 62 30 28 35 57 12 64 -6 2 -27 -11 -46 -29z"/>
<path d="M613 502 c-15 -8 -41 -25 -58 -38 -109 -82 -192 -83 -272 -4 -33 32
-63 35 -63 6 0 -18 43 -66 58 -66 6 0 12 -5 14 -10 4 -14 76 -39 112 -40 37 0
107 21 124 37 7 7 16 13 20 13 4 0 22 14 41 30 18 16 37 27 42 24 5 -3 9 -1 9
5 0 21 52 2 106 -39 84 -64 181 -88 244 -63 8 3 21 7 28 9 7 1 25 11 39 21 14
10 33 23 42 28 9 6 19 14 22 18 3 5 23 10 43 12 31 3 44 -3 82 -36 25 -21 53
-43 63 -49 39 -20 107 -38 136 -36 42 4 119 39 165 76 49 39 86 39 136 -1 128
-103 266 -103 390 0 15 12 106 5 114 -10 10 -16 30 -2 30 20 0 27 -78 54 -127
45 -21 -4 -38 -5 -39 -3 0 2 -11 -7 -25 -21 -81 -86 -224 -80 -321 13 -47 45
-117 47 -175 5 -66 -49 -140 -80 -176 -75 -49 7 -92 29 -134 68 -59 54 -73 59
-149 50 -7 0 -34 -16 -60 -34 -122 -83 -184 -80 -311 12 -68 48 -104 56 -150
33z"/>
</g>
</svg>
